PathFileType  4	(X/Y/Z) C:\Users\antoi\Documents\MyRepositories\mobilecap\ResultsAnalysis
DataRate	CameraRate	NumFrames	NumMarkers	Units	OrigDataRate	OrigDataStartFrame	OrigNumFrames
100.0	100.0	4	51	mm	100.0	68	135
Frame#	Time	r_knee			r_shank_antsup			r_ankle			r_calc			r_5meta			r_toe			L_knee			L_shank_antsup			L_ankle			L_calc			L_5meta			L_toe			r_sh2			r_sh3			r_sh4			L_sh2			L_sh3			r_thigh1			r_thigh2			r_thigh3			r_thigh4			r_thigh5			L_thigh1			L_thigh2			L_thigh3			L_thigh4			r.ASIS			r.PSIS			L.ASIS			L.PSIS			C7			R_Shoulder			L_Shoulder			R_Sternum			L_Sternum			R_humerus			R_elbow_med			R_elbow_lat			R_forearm			R_wrist_radius			R_wrist_ulna			L_humerus			L_elbow_med			L_elbow_lat			L_forearm			L_wrist_radius			L_wrist_ulna			R_HJC			L_HJC			R_HJC_reg			L_HJC_reg			
		X1	Y1	Z1	X2	Y2	Z2	X3	Y3	Z3	X4	Y4	Z4	X5	Y5	Z5	X6	Y6	Z6	X7	Y7	Z7	X8	Y8	Z8	X9	Y9	Z9	X10	Y10	Z10	X11	Y11	Z11	X12	Y12	Z12	X13	Y13	Z13	X14	Y14	Z14	X15	Y15	Z15	X16	Y16	Z16	X17	Y17	Z17	X18	Y18	Z18	X19	Y19	Z19	X20	Y20	Z20	X21	Y21	Z21	X22	Y22	Z22	X23	Y23	Z23	X24	Y24	Z24	X25	Y25	Z25	X26	Y26	Z26	X27	Y27	Z27	X28	Y28	Z28	X29	Y29	Z29	X30	Y30	Z30	X31	Y31	Z31	X32	Y32	Z32	X33	Y33	Z33	X34	Y34	Z34	X35	Y35	Z35	X36	Y36	Z36	X37	Y37	Z37	X38	Y38	Z38	X39	Y39	Z39	X40	Y40	Z40	X41	Y41	Z41	X42	Y42	Z42	X43	Y43	Z43	X44	Y44	Z44	X45	Y45	Z45	X46	Y46	Z46	X47	Y47	Z47	X48	Y48	Z48	X49	Y49	Z49	X50	Y50	Z50	X51	Y51	Z51	

68	0.67000000	633.38758	464.27138	-26.83536	617.04414	383.20622	-41.01743	331.99104	198.12889	-82.99499	276.01468	228.56468	-132.25588	343.05923	77.56587	-48.96074	407.03257	59.70943	-92.14199	850.35884	492.84842	-309.97149	894.99596	402.24756	-309.86876	857.81813	94.79167	-265.56655	797.35438	62.97431	-209.47140	958.77785	42.90867	-311.99933	1007.71814	69.33902	-261.52743	518.20172	321.74564	-30.91258	567.64272	447.55421	-24.46611	476.16856	382.84549	-35.54369	804.64357	403.87655	-311.18774	812.94670	282.23607	-309.65674	747.27682	767.03576	-7.35870	727.20041	658.47006	-8.29125	668.89273	642.68440	11.26435	634.34963	781.85815	5.54057	618.58322	666.72392	-6.56053	795.42247	754.16329	-370.77888	847.99273	629.35737	-341.24641	691.58303	713.89695	-338.02918	749.54310	586.82616	-316.38326	782.71401	940.57371	-43.33372	598.61677	985.37079	-137.36603	801.99204	937.85712	-294.09861	596.47608	992.39235	-237.66820	585.06529	1388.43993	-195.45687	706.22034	1371.05006	-28.47263	640.63793	1355.18520	-376.63870	727.43818	1370.55306	-190.22593	728.32378	1369.37689	-233.95665	737.05815	1242.71108	36.76855	718.18120	1020.40484	8.50050	736.07382	1042.76047	75.75124	862.46593	975.03038	73.23513	966.14353	889.32447	58.79711	949.25071	864.76120	77.96394	618.14955	1243.03247	-431.80245	552.28299	1026.21749	-331.22013	524.12958	1050.79490	-401.76312	526.48117	944.64395	-440.63888	472.44579	793.97487	-455.70022	441.41584	810.33840	-454.98787	703.76642	863.67696	-75.67553	719.08559	866.65660	-281.55790	719.47468	860.42021	-82.14768	715.94213	872.01433	-247.70234	
69	0.68000000	657.73207	462.20448	-23.75992	640.03556	382.07104	-37.87895	349.37117	207.16479	-81.15187	296.92320	242.18250	-131.00822	352.24520	85.53168	-48.31221	414.94709	63.22655	-90.99049	857.50066	492.67685	-311.76632	901.10368	401.24709	-311.37842	858.33478	94.77854	-265.42810	797.31565	63.07192	-209.56457	958.85436	42.69481	-312.39888	1007.82042	68.42063	-261.58228	539.21077	323.72109	-28.45293	592.60959	447.72472	-21.21640	499.21071	386.01766	-33.57856	810.69148	404.41855	-312.78100	816.95590	282.54733	-310.55788	762.65089	767.92235	-7.51753	745.77026	658.78925	-6.44125	687.74445	641.69735	13.06520	649.37962	779.79969	4.12766	636.92996	664.29660	-5.46386	805.84749	754.84270	-372.97020	856.66113	629.13074	-343.72492	701.40432	715.70586	-340.12326	757.68070	588.07622	-318.10689	794.60821	941.13079	-45.32482	610.58715	985.44773	-138.75261	813.97609	939.13335	-296.07500	608.45512	993.32097	-239.03370	597.13648	1389.23353	-197.69348	717.24958	1372.09893	-29.87509	654.28729	1355.87753	-378.62971	739.37998	1371.60894	-191.46374	740.58034	1370.41007	-235.11715	747.09650	1243.52035	35.53489	725.97179	1021.44191	7.13855	743.78145	1043.59823	74.59972	868.87114	973.57587	73.65391	971.04476	885.83572	60.73020	953.40142	861.59599	79.62230	633.64834	1243.11262	-434.12735	569.47506	1025.40674	-334.55516	542.08148	1049.48182	-405.61785	547.14220	943.28837	-444.35092	496.19198	791.64168	-460.11098	465.09196	807.33868	-460.37658	716.03786	864.02067	-77.74707	731.16037	867.81375	-283.62601	731.92199	860.12278	-84.86114	728.40486	873.11469	-250.30070	
70	0.69000000	682.28598	460.54576	-20.86771	663.57391	381.34793	-35.11191	367.88366	216.06806	-79.57960	318.70690	254.73787	-130.18864	363.74046	94.12203	-47.50383	425.19925	67.96829	-89.53094	863.80155	492.36467	-313.47750	906.27457	400.13575	-312.94768	858.69572	94.78724	-265.31028	797.23336	63.14859	-209.69034	958.88914	42.53107	-312.73805	1007.85481	67.70690	-261.67185	561.00405	325.97485	-26.27283	618.10544	448.13057	-18.05547	522.96031	389.31956	-31.74622	815.93778	404.86722	-314.09844	820.31715	282.81793	-311.21505	777.57619	768.99309	-7.49895	764.22238	659.18781	-4.75732	706.25900	640.94895	14.86973	664.03509	777.83997	2.82042	654.97521	662.18436	-4.35773	815.54253	755.25338	-375.17167	864.52176	628.66802	-346.14041	710.59799	717.41639	-341.87893	765.15867	589.27844	-319.56162	806.15039	941.34413	-47.30140	622.24141	985.42706	-139.96993	825.59497	940.30758	-298.03730	620.12964	994.20103	-240.24097	609.15430	1389.96745	-199.89469	728.06385	1373.05995	-31.18031	667.98374	1356.53127	-380.59062	751.21996	1372.59611	-192.59601	752.76531	1371.38431	-236.17367	756.92322	1244.24781	34.37357	733.64944	1022.39913	5.90828	751.42661	1044.40710	73.49399	875.13056	972.08503	74.04703	975.75461	882.22314	62.65333	957.31753	858.40804	81.27543	649.33139	1243.12498	-436.40250	586.89446	1024.47356	-337.95879	560.40732	1048.03397	-409.58325	568.36277	941.83900	-448.12076	520.74491	789.13345	-464.66845	489.69263	804.19335	-465.96068	727.92970	864.10954	-79.83607	742.80137	868.91261	-285.70755	743.91997	859.65939	-87.60879	740.43818	874.12377	-252.91629	
71	0.70000000	706.89311	459.51161	-18.20800	687.54183	381.13800	-32.78347	387.49812	224.61968	-78.40056	340.97168	265.86794	-129.87761	377.88303	102.98046	-46.49885	438.26531	73.75461	-87.77033	869.40129	491.98243	-315.03723	910.72399	398.98658	-314.45587	858.96319	94.81681	-265.21623	797.14763	63.20774	-209.82530	958.90790	42.38841	-313.00178	1007.86992	67.15491	-261.76488	583.45504	328.55390	-24.43399	643.92517	448.91376	-15.16368	547.24748	392.79776	-30.08510	820.56013	405.24184	-315.20089	823.20704	283.06187	-311.71989	792.02354	770.36167	-7.40527	782.40815	659.84342	-3.32414	724.33998	640.55203	16.49191	678.27554	776.10630	1.54838	672.65924	660.54153	-3.42885	824.57050	755.46027	-377.29302	871.65315	628.03542	-348.40179	719.21961	719.03508	-343.22564	772.06826	590.45940	-320.70338	817.39843	941.22922	-49.23320	633.59522	985.36608	-141.02037	836.87404	941.35646	-299.94866	631.50933	995.05886	-241.30539	621.12818	1390.64369	-202.06046	738.65597	1373.94702	-32.37628	681.71372	1357.13690	-382.51755	762.95569	1373.53909	-193.62445	764.86540	1372.30843	-237.12612	766.52446	1244.89331	33.29810	741.26408	1023.26684	4.76655	758.99147	1045.16071	72.42073	881.23545	970.54834	74.42401	980.29600	878.48713	64.59367	961.00671	855.21293	82.91900	665.19169	1243.06753	-438.60698	604.47054	1023.43646	-341.42698	579.09734	1046.47344	-413.65337	590.11035	940.32358	-451.92382	546.10095	786.51531	-469.38767	515.18921	800.96053	-471.70586	739.44582	863.98129	-81.91006	754.01854	869.94678	-287.76970	755.47992	859.08092	-90.32501	752.04412	875.03965	-255.48277	
